<?xml version="1.0" encoding="utf-8"?>
<!-- Generator: Adobe Illustrator 21.0.0, SVG Export Plug-In . SVG Version: 6.00 Build 0)  -->
<svg version="1.1" id="图层_1" xmlns="http://www.w3.org/2000/svg" xmlns:xlink="http://www.w3.org/1999/xlink" x="0px" y="0px"
	 viewBox="0 0 200 200" style="enable-background:new 0 0 200 200;" xml:space="preserve">
<path d="M171.9,87.4h-59.4V28c0-7-5.7-12.7-12.7-12.7S87.1,21,87.1,28v59.4H27.7c-7,0-12.7,5.7-12.7,12.7c0,7,5.7,12.7,12.7,12.7
	h59.4v59.4c0,7,5.7,12.7,12.7,12.7s12.7-5.7,12.7-12.7v-59.4h59.4c7,0,12.7-5.7,12.7-12.7C184.6,93.1,178.9,87.4,171.9,87.4
	C171.9,87.4,171.9,87.4,171.9,87.4z"/>
</svg>
