<?xml version="1.0" encoding="utf-8"?>
<!-- Generator: Adobe Illustrator 21.0.0, SVG Export Plug-In . SVG Version: 6.00 Build 0)  -->
<svg version="1.1" id="图层_1" xmlns="http://www.w3.org/2000/svg" xmlns:xlink="http://www.w3.org/1999/xlink" x="0px" y="0px"
	 viewBox="0 0 200 200" style="enable-background:new 0 0 200 200;" xml:space="preserve">
<path d="M100.8,41c-64.3,0-97.3,65-97.3,65s24.9,65,97.3,65c65.6,0,97.3-64.8,97.3-64.8S166.1,41,100.8,41L100.8,41L100.8,41z
	 M100.9,146.6c-23.5,0-40.5-17.8-40.5-40.6c0-22.9,17-40.6,40.5-40.6s40.5,17.8,40.5,40.6C141.4,128.8,124.4,146.6,100.9,146.6
	L100.9,146.6L100.9,146.6z M100.9,81.6c-13.4,0-24.3,11.3-24.3,24.4c0,13.1,10.9,24.4,24.3,24.4c13.4,0,24.3-11.3,24.3-24.4
	C125.2,92.9,114.4,81.6,100.9,81.6L100.9,81.6L100.9,81.6z"/>
</svg>
