<?xml version="1.0" encoding="utf-8"?>
<!-- Generator: Adobe Illustrator 21.0.0, SVG Export Plug-In . SVG Version: 6.00 Build 0)  -->
<svg version="1.1" id="图层_1" xmlns="http://www.w3.org/2000/svg" xmlns:xlink="http://www.w3.org/1999/xlink" x="0px" y="0px"
	 viewBox="0 0 32 32" style="enable-background:new 0 0 32 32;" xml:space="preserve">
<path d="M22.1,3.1c-2.4,0-4.6,1.2-6.1,3.2c-1.5-2-3.7-3.2-6.1-3.2c-4.3,0-7.8,3.8-7.8,8.6c0,2.8,1.3,4.8,2.3,6.4
	C7.3,22.6,14.7,28.3,15,28.6c0.3,0.2,0.7,0.3,1,0.3c0.3,0,0.7-0.1,1-0.3c0.3-0.2,7.7-6,10.6-10.6c1-1.6,2.3-3.6,2.3-6.4
	C29.9,6.9,26.4,3.1,22.1,3.1L22.1,3.1L22.1,3.1L22.1,3.1z"/>
</svg>
