<?xml version="1.0" encoding="utf-8"?>
<!-- Generator: Adobe Illustrator 21.0.0, SVG Export Plug-In . SVG Version: 6.00 Build 0)  -->
<svg version="1.1" id="图层_1" xmlns="http://www.w3.org/2000/svg" xmlns:xlink="http://www.w3.org/1999/xlink" x="0px" y="0px"
	 viewBox="0 0 200 200" style="enable-background:new 0 0 200 200;" xml:space="preserve">
<path d="M195.8,87.8c-0.8-4.2-4.8-8.5-9-9.4l-3.1-0.7c-7.4-2.2-13.9-7.1-18.1-14.3c-4.2-7.2-5.1-15.4-3.3-23l0,0l1-3
	c1.2-4.1-0.4-9.7-3.7-12.5c0,0-3-2.5-11.3-7.3c-8.3-4.8-11.9-6.1-11.9-6.1c-4-1.5-9.7-0.1-12.7,3.1l-2.2,2.3
	c-5.6,5.3-13.1,8.5-21.5,8.5c-8.3,0-15.9-3.3-21.5-8.6l-2.1-2.3c-2.9-3.1-8.6-4.5-12.7-3.1c0,0-3.6,1.3-12,6.1
	C43.4,22.5,40.5,25,40.5,25c-3.3,2.8-4.9,8.4-3.7,12.5l0.9,3c1.8,7.5,0.8,15.7-3.3,22.9c-4.2,7.2-10.8,12.1-18.2,14.3l-3,0.7
	c-4.2,0.9-8.2,5.2-9,9.4c0,0-0.7,3.8-0.7,13.4c0,9.6,0.7,13.4,0.7,13.4c0.8,4.2,4.8,8.5,9,9.4l2.9,0.7l0,0
	c7.4,2.2,14.1,7.1,18.2,14.4c4.2,7.2,5.1,15.4,3.3,23l0,0l-0.9,2.9c-1.2,4.1,0.4,9.7,3.7,12.5c0,0,3,2.5,11.3,7.3
	c8.3,4.8,11.9,6.1,11.9,6.1c4,1.5,9.7,0.1,12.7-3.1l2.1-2.2c5.6-5.3,13.2-8.6,21.6-8.6s16,3.3,21.6,8.6l0,0l2.1,2.2
	c2.9,3.1,8.6,4.5,12.7,3.1c0,0,3.6-1.3,12-6.1c8.3-4.8,11.2-7.3,11.2-7.3c3.3-2.8,4.9-8.4,3.7-12.5l-0.9-3
	c-1.8-7.5-0.8-15.7,3.3-22.9c4.2-7.2,10.8-12.2,18.2-14.4l0,0l3-0.7c4.2-0.9,8.2-5.2,9-9.4c0,0,0.7-3.8,0.7-13.4
	C196.5,91.6,195.8,87.8,195.8,87.8L195.8,87.8 M100,139.7c-21.2,0-38.5-17.2-38.5-38.5c0-21.2,17.2-38.4,38.5-38.4
	c21.2,0,38.5,17.2,38.5,38.5C138.5,122.5,121.2,139.7,100,139.7L100,139.7 M100,139.7L100,139.7z"/>
</svg>
