<?xml version="1.0" standalone="no"?><!DOCTYPE svg PUBLIC "-//W3C//DTD SVG 1.1//EN" "http://www.w3.org/Graphics/SVG/1.1/DTD/svg11.dtd"><svg t="1544429472605" class="icon" style="" viewBox="0 0 1024 1024" version="1.1" xmlns="http://www.w3.org/2000/svg" p-id="3328" xmlns:xlink="http://www.w3.org/1999/xlink" width="128" height="128"><defs><style type="text/css"></style></defs><path d="M911.6 651.6v209.2c0 36-30.4 66.2-66.2 66.2l-699.6 1.2c-35.8 0-65-29.2-65-65.2L82 163.4c0-35.8 30.4-66.2 66.2-66.2h387v-77h-387C66.4 20.2 5.2 103 5.2 177v686c0 77.6 63 140.8 140.8 140.8h686c82 0 156.6-68.2 156.6-143V651.6h-77zM730.2 60.8L1018.8 350 730.2 639V473.8S443.8 442 276.6 680.4c0 0 52.6-454.4 453.6-454.4V60.8z" p-id="3329"></path></svg>